<svg width="80" height="53" viewBox="0 0 80 53" fill="none" xmlns="http://www.w3.org/2000/svg">
<g clip-path="url(#clip0_422_2)">
<path d="M60 5H20C8.9543 5 0 13.9543 0 25V33C0 44.0457 8.9543 53 20 53H60C71.0457 53 80 44.0457 80 33V25C80 13.9543 71.0457 5 60 5Z" fill="#A56A2C"/>
<path d="M0 0H60C71.0457 0 80 8.9543 80 20V28C80 39.0457 71.0457 48 60 48H20C8.95431 48 0 39.0457 0 28V0Z" fill="#F29B41"/>
<path d="M34.5996 16.8L36.3996 13.2H32.7996C28.8216 13.2 25.5996 18.222 25.5996 22.2V34.8H38.1996V22.2H30.9996C30.9996 16.8 34.5996 16.8 34.5996 16.8ZM47.1996 22.2C47.1996 16.8 50.7996 16.8 50.7996 16.8L52.5996 13.2H48.9996C45.0216 13.2 41.7996 18.222 41.7996 22.2V34.8H54.3996V22.2H47.1996Z" fill="black"/>
</g>
<defs>
<clipPath id="clip0_422_2">
<rect width="80" height="53" fill="white"/>
</clipPath>
</defs>
</svg>
