<svg width="80" height="53" viewBox="0 0 80 53" fill="none" xmlns="http://www.w3.org/2000/svg">
<rect y="5" width="80" height="48" rx="20" fill="#6F571C"/>
<path d="M0 0H60C71.0457 0 80 8.9543 80 20V28C80 39.0457 71.0457 48 60 48H20C8.95431 48 0 39.0457 0 28V0Z" fill="#F9BE27"/>
<path d="M35.5 39C34.6 39 34 38.42 34 37.55V33.2H28C26.35 33.2 25 31.895 25 30.3V12.9C25 11.305 26.35 10 28 10H52C53.65 10 55 11.305 55 12.9V30.3C55 31.895 53.65 33.2 52 33.2H42.85L37.3 38.565C37 38.855 36.7 39 36.25 39H35.5ZM37 30.3V34.795L41.65 30.3H52V12.9H28V30.3H37ZM46.45 15.8L44.35 20.15H47.5V25.95H41.5V19.86L43.45 15.8H46.45ZM37.45 15.8L35.35 20.15H38.5V25.95H32.5V19.86L34.45 15.8H37.45Z" fill="black"/>
</svg>
