<svg width="156" height="156" viewBox="0 0 156 156" fill="none" xmlns="http://www.w3.org/2000/svg">
<circle cx="78" cy="78" r="78" fill="#181818"/>
<path d="M78.3333 57C81.1623 57 83.8754 58.1238 85.8758 60.1242C87.8762 62.1246 89 64.8377 89 67.6667C89 70.4956 87.8762 73.2088 85.8758 75.2091C83.8754 77.2095 81.1623 78.3333 78.3333 78.3333C75.5044 78.3333 72.7912 77.2095 70.7909 75.2091C68.7905 73.2088 67.6667 70.4956 67.6667 67.6667C67.6667 64.8377 68.7905 62.1246 70.7909 60.1242C72.7912 58.1238 75.5044 57 78.3333 57ZM78.3333 83.6667C90.12 83.6667 99.6667 88.44 99.6667 94.3333V99.6667H57V94.3333C57 88.44 66.5467 83.6667 78.3333 83.6667Z" fill="#F29B41"/>
</svg>
